<svg xmlns="http://www.w3.org/2000/svg" xmlns:xlink="http://www.w3.org/1999/xlink" width="1000" zoomAndPan="magnify" viewBox="0 0 750 872.249978" height="1163" preserveAspectRatio="xMidYMid meet" version="1.0"><defs><clipPath id="1c2e2076f6"><path d="M 0.320312 0 L 748.417969 0 L 748.417969 870.234375 L 0.320312 870.234375 Z M 0.320312 0 " clip-rule="nonzero"/></clipPath><clipPath id="50359ced5e"><path d="M 322.546875 244.476562 L 431.960938 244.476562 L 431.960938 348.800781 L 322.546875 348.800781 Z M 322.546875 244.476562 " clip-rule="nonzero"/></clipPath><clipPath id="0f5dc4d239"><path d="M 440 465 L 584 465 L 584 612 L 440 612 Z M 440 465 " clip-rule="nonzero"/></clipPath><clipPath id="e72b68e362"><path d="M 440.921875 561.011719 L 495.164062 465.988281 L 583.558594 516.449219 L 529.316406 611.472656 Z M 440.921875 561.011719 " clip-rule="nonzero"/></clipPath><clipPath id="32f47c3bff"><path d="M 173 466 L 317 466 L 317 613 L 173 613 Z M 173 466 " clip-rule="nonzero"/></clipPath><clipPath id="473eaaec7f"><path d="M 228.863281 612.675781 L 173.074219 518.550781 L 260.632812 466.652344 L 316.421875 560.777344 Z M 228.863281 612.675781 " clip-rule="nonzero"/></clipPath><clipPath id="e929747aa0"><path d="M 129.503906 30.25 L 208.382812 30.25 L 208.382812 109.128906 L 129.503906 109.128906 Z M 129.503906 30.25 " clip-rule="nonzero"/></clipPath><clipPath id="2c5ce6d2a9"><path d="M 549.074219 30.25 L 627.957031 30.25 L 627.957031 109.128906 L 549.074219 109.128906 Z M 549.074219 30.25 " clip-rule="nonzero"/></clipPath><clipPath id="5e00387bc7"><path d="M 549.074219 761.546875 L 627.957031 761.546875 L 627.957031 840.429688 L 549.074219 840.429688 Z M 549.074219 761.546875 " clip-rule="nonzero"/></clipPath><clipPath id="6273e6ff8c"><path d="M 129.503906 761.546875 L 208.382812 761.546875 L 208.382812 840.429688 L 129.503906 840.429688 Z M 129.503906 761.546875 " clip-rule="nonzero"/></clipPath><clipPath id="11c021bc89"><path d="M 13.246094 393.804688 L 99.761719 393.804688 L 99.761719 521.035156 L 13.246094 521.035156 Z M 13.246094 393.804688 " clip-rule="nonzero"/></clipPath><clipPath id="511e8c0545"><path d="M 651.277344 393.804688 L 737.792969 393.804688 L 737.792969 521.035156 L 651.277344 521.035156 Z M 651.277344 393.804688 " clip-rule="nonzero"/></clipPath><clipPath id="bf959a3533"><path d="M 227 807 L 267 807 L 267 846 L 227 846 Z M 227 807 " clip-rule="nonzero"/></clipPath><clipPath id="f996ee722f"><path d="M 220.863281 819.863281 L 253.917969 800.777344 L 273 833.832031 L 239.945312 852.917969 Z M 220.863281 819.863281 " clip-rule="nonzero"/></clipPath><clipPath id="ab95e24351"><path d="M 280 807 L 319 807 L 319 846 L 280 846 Z M 280 807 " clip-rule="nonzero"/></clipPath><clipPath id="1e81d093bc"><path d="M 276.0625 813.238281 L 312.933594 803.359375 L 322.808594 840.226562 L 285.941406 850.105469 Z M 276.0625 813.238281 " clip-rule="nonzero"/></clipPath><clipPath id="5bf9c31bad"><path d="M 332 808 L 371 808 L 371 847 L 332 847 Z M 332 808 " clip-rule="nonzero"/></clipPath><clipPath id="cae2b13970"><path d="M 325.394531 820.503906 L 358.449219 801.417969 L 377.535156 834.472656 L 344.480469 853.558594 Z M 325.394531 820.503906 " clip-rule="nonzero"/></clipPath><clipPath id="ca524ccabd"><path d="M 384 808 L 424 808 L 424 847 L 384 847 Z M 384 808 " clip-rule="nonzero"/></clipPath><clipPath id="a02e876cf8"><path d="M 380.597656 813.878906 L 417.464844 804 L 427.34375 840.867188 L 390.476562 850.746094 Z M 380.597656 813.878906 " clip-rule="nonzero"/></clipPath><clipPath id="5b8a8fe838"><path d="M 436 809 L 476 809 L 476 848 L 436 848 Z M 436 809 " clip-rule="nonzero"/></clipPath><clipPath id="06eb0d1bd2"><path d="M 429.929688 821.140625 L 462.984375 802.058594 L 482.066406 835.113281 L 449.011719 854.195312 Z M 429.929688 821.140625 " clip-rule="nonzero"/></clipPath><clipPath id="6735d2a69d"><path d="M 489 808 L 528 808 L 528 848 L 489 848 Z M 489 808 " clip-rule="nonzero"/></clipPath><clipPath id="8f4334b539"><path d="M 485.128906 814.515625 L 521.996094 804.636719 L 531.875 841.503906 L 495.007812 851.382812 Z M 485.128906 814.515625 " clip-rule="nonzero"/></clipPath><clipPath id="4c316e6a64"><path d="M 227 21 L 266 21 L 266 60 L 227 60 Z M 227 21 " clip-rule="nonzero"/></clipPath><clipPath id="5480d8b8c1"><path d="M 220.214844 33.523438 L 253.269531 14.4375 L 272.355469 47.492188 L 239.300781 66.578125 Z M 220.214844 33.523438 " clip-rule="nonzero"/></clipPath><clipPath id="d28ff9a725"><path d="M 279 21 L 318 21 L 318 60 L 279 60 Z M 279 21 " clip-rule="nonzero"/></clipPath><clipPath id="ec4185f75f"><path d="M 275.417969 26.898438 L 312.285156 17.019531 L 322.164062 53.886719 L 285.296875 63.765625 Z M 275.417969 26.898438 " clip-rule="nonzero"/></clipPath><clipPath id="d600b20741"><path d="M 331 22 L 370 22 L 370 61 L 331 61 Z M 331 22 " clip-rule="nonzero"/></clipPath><clipPath id="dbf6730779"><path d="M 324.746094 34.160156 L 357.800781 15.078125 L 376.886719 48.132812 L 343.832031 67.214844 Z M 324.746094 34.160156 " clip-rule="nonzero"/></clipPath><clipPath id="53bf3fe1ad"><path d="M 384 21 L 423 21 L 423 61 L 384 61 Z M 384 21 " clip-rule="nonzero"/></clipPath><clipPath id="ffaf381f81"><path d="M 379.949219 27.535156 L 416.816406 17.65625 L 426.695312 54.527344 L 389.828125 64.40625 Z M 379.949219 27.535156 " clip-rule="nonzero"/></clipPath><clipPath id="a316e6958e"><path d="M 436 22 L 475 22 L 475 61 L 436 61 Z M 436 22 " clip-rule="nonzero"/></clipPath><clipPath id="b59480780c"><path d="M 429.28125 34.800781 L 462.335938 15.714844 L 481.417969 48.769531 L 448.363281 67.855469 Z M 429.28125 34.800781 " clip-rule="nonzero"/></clipPath><clipPath id="8f8f1c21a9"><path d="M 488 22 L 527 22 L 527 61 L 488 61 Z M 488 22 " clip-rule="nonzero"/></clipPath><clipPath id="51a35f9711"><path d="M 484.480469 28.175781 L 521.347656 18.296875 L 531.226562 55.164062 L 494.359375 65.042969 Z M 484.480469 28.175781 " clip-rule="nonzero"/></clipPath><clipPath id="12ef2b0023"><path d="M 122.464844 193.367188 L 631.371094 193.367188 L 631.371094 702.277344 L 122.464844 702.277344 Z M 122.464844 193.367188 " clip-rule="nonzero"/></clipPath><clipPath id="3b261b502e"><path d="M 481 338 L 533 338 L 533 404 L 481 404 Z M 481 338 " clip-rule="nonzero"/></clipPath><clipPath id="b525eaf8ee"><path d="M 498.691406 338.585938 L 532.511719 392.464844 L 515.269531 403.285156 L 481.449219 349.40625 Z M 498.691406 338.585938 " clip-rule="nonzero"/></clipPath><clipPath id="1d1186f69c"><path d="M 204 325 L 267 325 L 267 404 L 204 404 Z M 204 325 " clip-rule="nonzero"/></clipPath><clipPath id="22feeb129b"><path d="M 266.0625 340.230469 L 233.976562 403.84375 L 204.441406 388.945312 L 236.527344 325.332031 Z M 266.0625 340.230469 " clip-rule="nonzero"/></clipPath><clipPath id="dcd475ad7d"><path d="M 331.507812 576.414062 L 420.566406 576.414062 L 420.566406 634.9375 L 331.507812 634.9375 Z M 331.507812 576.414062 " clip-rule="nonzero"/></clipPath></defs><g clip-path="url(#1c2e2076f6)"><path fill="#fa3a35" d="M 0.328125 0 L 748.410156 0 L 748.410156 870.234375 L 0.328125 870.234375 L 0.328125 0 " fill-opacity="1" fill-rule="nonzero"/></g><g clip-path="url(#50359ced5e)"><path fill="#545454" d="M 322.546875 348.800781 L 322.546875 244.476562 L 431.960938 244.476562 L 431.960938 348.800781 L 322.546875 348.800781 " fill-opacity="1" fill-rule="nonzero"/></g><g clip-path="url(#0f5dc4d239)"><g clip-path="url(#e72b68e362)"><path fill="#545454" d="M 440.929688 561.019531 L 495.171875 465.996094 L 583.550781 516.445312 L 529.308594 611.46875 L 440.929688 561.019531 " fill-opacity="1" fill-rule="nonzero"/></g></g><g clip-path="url(#32f47c3bff)"><g clip-path="url(#473eaaec7f)"><path fill="#545454" d="M 228.871094 612.671875 L 173.082031 518.546875 L 260.625 466.65625 L 316.414062 560.78125 L 228.871094 612.671875 " fill-opacity="1" fill-rule="nonzero"/></g></g><g clip-path="url(#e929747aa0)"><path fill="#ffffff" d="M 168.945312 30.25 C 147.160156 30.25 129.503906 47.90625 129.503906 69.691406 C 129.503906 91.472656 147.160156 109.128906 168.945312 109.128906 C 190.726562 109.128906 208.382812 91.472656 208.382812 69.691406 C 208.382812 47.90625 190.726562 30.25 168.945312 30.25 " fill-opacity="1" fill-rule="nonzero"/></g><g clip-path="url(#2c5ce6d2a9)"><path fill="#ffffff" d="M 588.515625 30.25 C 566.734375 30.25 549.074219 47.90625 549.074219 69.691406 C 549.074219 91.472656 566.734375 109.128906 588.515625 109.128906 C 610.296875 109.128906 627.957031 91.472656 627.957031 69.691406 C 627.957031 47.90625 610.296875 30.25 588.515625 30.25 " fill-opacity="1" fill-rule="nonzero"/></g><g clip-path="url(#5e00387bc7)"><path fill="#ffffff" d="M 588.515625 761.546875 C 566.734375 761.546875 549.074219 779.207031 549.074219 800.988281 C 549.074219 822.769531 566.734375 840.429688 588.515625 840.429688 C 610.296875 840.429688 627.957031 822.769531 627.957031 800.988281 C 627.957031 779.207031 610.296875 761.546875 588.515625 761.546875 " fill-opacity="1" fill-rule="nonzero"/></g><g clip-path="url(#6273e6ff8c)"><path fill="#ffffff" d="M 168.945312 761.546875 C 147.160156 761.546875 129.503906 779.207031 129.503906 800.988281 C 129.503906 822.769531 147.160156 840.429688 168.945312 840.429688 C 190.726562 840.429688 208.382812 822.769531 208.382812 800.988281 C 208.382812 779.207031 190.726562 761.546875 168.945312 761.546875 " fill-opacity="1" fill-rule="nonzero"/></g><g clip-path="url(#11c021bc89)"><path fill="#545454" d="M 13.246094 521.027344 L 13.246094 393.808594 L 99.761719 393.808594 L 99.761719 521.027344 L 13.246094 521.027344 " fill-opacity="1" fill-rule="nonzero"/></g><g clip-path="url(#511e8c0545)"><path fill="#545454" d="M 651.277344 521.027344 L 651.277344 393.808594 L 737.792969 393.808594 L 737.792969 521.027344 L 651.277344 521.027344 " fill-opacity="1" fill-rule="nonzero"/></g><g clip-path="url(#bf959a3533)"><g clip-path="url(#f996ee722f)"><path fill="#bdbdbd" d="M 237.390625 810.320312 C 228.261719 815.589844 225.136719 827.261719 230.40625 836.390625 C 235.675781 845.519531 247.347656 848.644531 256.472656 843.375 C 265.601562 838.105469 268.730469 826.433594 263.460938 817.304688 C 258.191406 808.179688 246.519531 805.050781 237.390625 810.320312 " fill-opacity="1" fill-rule="nonzero"/></g></g><g clip-path="url(#ab95e24351)"><g clip-path="url(#1e81d093bc)"><path fill="#bdbdbd" d="M 294.496094 808.300781 C 284.316406 811.027344 278.277344 821.492188 281.003906 831.671875 C 283.730469 841.851562 294.195312 847.894531 304.375 845.167969 C 314.558594 842.4375 320.597656 831.976562 317.871094 821.792969 C 315.144531 811.613281 304.679688 805.570312 294.496094 808.300781 " fill-opacity="1" fill-rule="nonzero"/></g></g><g clip-path="url(#5bf9c31bad)"><g clip-path="url(#cae2b13970)"><path fill="#bdbdbd" d="M 341.921875 810.960938 C 332.796875 816.230469 329.667969 827.902344 334.9375 837.03125 C 340.207031 846.15625 351.878906 849.285156 361.007812 844.015625 C 370.132812 838.746094 373.261719 827.074219 367.992188 817.945312 C 362.722656 808.816406 351.050781 805.691406 341.921875 810.960938 " fill-opacity="1" fill-rule="nonzero"/></g></g><g clip-path="url(#ca524ccabd)"><g clip-path="url(#a02e876cf8)"><path fill="#bdbdbd" d="M 399.03125 808.9375 C 388.851562 811.667969 382.808594 822.132812 385.535156 832.3125 C 388.265625 842.492188 398.726562 848.535156 408.910156 845.804688 C 419.089844 843.078125 425.132812 832.613281 422.402344 822.433594 C 419.675781 812.253906 409.210938 806.210938 399.03125 808.9375 " fill-opacity="1" fill-rule="nonzero"/></g></g><g clip-path="url(#5b8a8fe838)"><g clip-path="url(#06eb0d1bd2)"><path fill="#bdbdbd" d="M 446.457031 811.597656 C 437.328125 816.867188 434.199219 828.539062 439.46875 837.667969 C 444.738281 846.796875 456.410156 849.921875 465.539062 844.652344 C 474.667969 839.382812 477.792969 827.710938 472.523438 818.585938 C 467.253906 809.457031 455.582031 806.328125 446.457031 811.597656 " fill-opacity="1" fill-rule="nonzero"/></g></g><g clip-path="url(#6735d2a69d)"><g clip-path="url(#8f4334b539)"><path fill="#bdbdbd" d="M 503.5625 809.578125 C 493.382812 812.304688 487.339844 822.769531 490.070312 832.949219 C 492.796875 843.132812 503.261719 849.171875 513.441406 846.445312 C 523.621094 843.71875 529.664062 833.253906 526.9375 823.070312 C 524.207031 812.890625 513.742188 806.847656 503.5625 809.578125 " fill-opacity="1" fill-rule="nonzero"/></g></g><g clip-path="url(#4c316e6a64)"><g clip-path="url(#5480d8b8c1)"><path fill="#bdbdbd" d="M 236.742188 23.980469 C 227.613281 29.25 224.488281 40.921875 229.757812 50.050781 C 235.027344 59.175781 246.699219 62.304688 255.828125 57.035156 C 264.953125 51.765625 268.082031 40.09375 262.8125 30.964844 C 257.542969 21.835938 245.871094 18.710938 236.742188 23.980469 " fill-opacity="1" fill-rule="nonzero"/></g></g><g clip-path="url(#d28ff9a725)"><g clip-path="url(#ec4185f75f)"><path fill="#bdbdbd" d="M 293.851562 21.957031 C 283.667969 24.6875 277.628906 35.152344 280.355469 45.332031 C 283.082031 55.511719 293.546875 61.554688 303.730469 58.824219 C 313.910156 56.097656 319.953125 45.632812 317.222656 35.453125 C 314.496094 25.273438 304.03125 19.230469 293.851562 21.957031 " fill-opacity="1" fill-rule="nonzero"/></g></g><g clip-path="url(#d600b20741)"><g clip-path="url(#dbf6730779)"><path fill="#bdbdbd" d="M 341.273438 24.621094 C 332.148438 29.890625 329.019531 41.5625 334.289062 50.6875 C 339.558594 59.816406 351.230469 62.945312 360.359375 57.671875 C 369.488281 52.402344 372.613281 40.730469 367.34375 31.605469 C 362.074219 22.476562 350.402344 19.347656 341.273438 24.621094 " fill-opacity="1" fill-rule="nonzero"/></g></g><g clip-path="url(#53bf3fe1ad)"><g clip-path="url(#ffaf381f81)"><path fill="#bdbdbd" d="M 398.382812 22.597656 C 388.203125 25.324219 382.160156 35.789062 384.886719 45.96875 C 387.617188 56.152344 398.082031 62.191406 408.261719 59.464844 C 418.441406 56.738281 424.484375 46.273438 421.757812 36.09375 C 419.027344 25.910156 408.5625 19.871094 398.382812 22.597656 " fill-opacity="1" fill-rule="nonzero"/></g></g><g clip-path="url(#a316e6958e)"><g clip-path="url(#b59480780c)"><path fill="#bdbdbd" d="M 445.808594 25.257812 C 436.679688 30.527344 433.550781 42.199219 438.824219 51.328125 C 444.09375 60.457031 455.765625 63.582031 464.890625 58.3125 C 474.019531 53.042969 477.148438 41.371094 471.878906 32.242188 C 466.605469 23.117188 454.933594 19.988281 445.808594 25.257812 " fill-opacity="1" fill-rule="nonzero"/></g></g><g clip-path="url(#8f8f1c21a9)"><g clip-path="url(#51a35f9711)"><path fill="#bdbdbd" d="M 502.914062 23.234375 C 492.734375 25.964844 486.691406 36.429688 489.421875 46.609375 C 492.148438 56.789062 502.613281 62.832031 512.792969 60.105469 C 522.976562 57.375 529.015625 46.910156 526.289062 36.730469 C 523.5625 26.550781 513.097656 20.507812 502.914062 23.234375 " fill-opacity="1" fill-rule="nonzero"/></g></g><g clip-path="url(#12ef2b0023)"><path fill="#ffffff" d="M 376.917969 702.277344 C 236.65625 702.277344 122.464844 588.085938 122.464844 447.820312 C 122.464844 307.558594 236.65625 193.367188 376.917969 193.367188 C 517.179688 193.367188 631.371094 307.558594 631.371094 447.820312 C 631.371094 588.085938 517.179688 702.277344 376.917969 702.277344 Z M 376.917969 197.128906 C 238.660156 197.128906 126.222656 309.5625 126.222656 447.820312 C 126.222656 586.078125 238.660156 698.515625 376.917969 698.515625 C 515.175781 698.515625 627.613281 586.078125 627.613281 447.820312 C 627.613281 309.5625 515.175781 197.128906 376.917969 197.128906 Z M 376.917969 197.128906 " fill-opacity="1" fill-rule="nonzero"/></g><g clip-path="url(#3b261b502e)"><g clip-path="url(#b525eaf8ee)"><path fill="#ffffff" d="M 498.714844 338.625 L 532.484375 392.425781 L 515.246094 403.246094 L 481.476562 349.445312 L 498.714844 338.625 " fill-opacity="1" fill-rule="nonzero"/></g></g><g clip-path="url(#1d1186f69c)"><g clip-path="url(#22feeb129b)"><path fill="#ffffff" d="M 266.046875 340.261719 L 233.992188 403.8125 L 204.457031 388.914062 L 236.511719 325.363281 L 266.046875 340.261719 " fill-opacity="1" fill-rule="nonzero"/></g></g><g clip-path="url(#dcd475ad7d)"><path fill="#ffffff" d="M 420.558594 634.9375 L 331.511719 634.9375 L 331.511719 576.414062 L 420.558594 576.414062 L 420.558594 634.9375 " fill-opacity="1" fill-rule="nonzero"/></g></svg>